<?xml version="1.0" standalone="no"?>
<!DOCTYPE svg PUBLIC "-//W3C//DTD SVG 20010904//EN"
 "http://www.w3.org/TR/2001/REC-SVG-20010904/DTD/svg10.dtd">
<svg version="1.0" xmlns="http://www.w3.org/2000/svg"
 width="1024.000000pt" height="1024.000000pt" viewBox="0 0 1024.000000 1024.000000"
 preserveAspectRatio="xMidYMid meet">

<g transform="translate(0.000000,1024.000000) scale(0.100000,-0.100000)"
fill="#000000" stroke="none">
<path d="M5265 7774 c-115 -7 -281 -26 -385 -45 -356 -63 -743 -230 -990 -426
-110 -87 -357 -335 -440 -441 -219 -279 -366 -599 -435 -942 -7 -36 -13 -54
-14 -40 0 14 6 54 15 90 8 36 12 76 9 90 -4 19 -3 21 5 10 8 -13 10 -12 10 5
0 11 3 31 6 45 3 15 2 20 -3 13 -11 -15 -63 -4 -63 13 0 8 -4 14 -10 14 -5 0
-10 9 -10 20 0 14 -5 18 -16 13 -14 -5 -16 -2 -10 20 4 16 2 27 -4 27 -10 0
-14 -20 -10 -54 1 -10 -3 -16 -8 -12 -5 3 -15 -20 -22 -52 -7 -31 -21 -88 -31
-127 -56 -220 -73 -623 -36 -865 58 -376 204 -735 429 -1053 126 -177 359
-422 528 -554 85 -67 291 -203 306 -203 7 0 14 -4 16 -9 7 -18 305 -153 433
-197 463 -156 978 -176 1438 -55 146 38 195 54 327 108 451 182 804 437 1073
773 166 207 351 530 415 725 40 120 88 325 96 405 4 36 9 79 12 97 5 25 2 32
-15 38 -12 3 -21 13 -21 21 0 10 -13 14 -49 14 -30 0 -51 5 -54 13 -2 6 -9 -4
-14 -23 -7 -24 -8 25 -5 161 5 218 -6 360 -43 544 -66 330 -250 711 -470 975
-65 78 -247 258 -325 322 -162 132 -507 324 -722 403 -266 97 -647 155 -913
139z m1026 -850 l35 -6 -137 -136 c-175 -175 -308 -297 -315 -289 -4 3 21 32
55 63 53 49 62 61 59 88 l-3 30 -688 4 c-774 3 -746 5 -897 -70 -114 -57 -193
-136 -244 -243 -68 -143 -68 -141 -76 -660 -5 -318 -4 -478 3 -495 6 -16 9
-119 8 -275 -3 -234 -1 -254 19 -315 31 -93 74 -163 147 -241 78 -83 144 -127
243 -165 l75 -29 730 -3 c470 -2 758 1 810 7 60 8 103 22 173 56 150 72 255
186 302 329 22 68 23 75 22 578 0 462 -1 511 -17 528 -28 31 -9 60 178 263 50
53 94 97 99 97 4 0 8 -320 8 -711 0 -678 -1 -714 -20 -789 -39 -152 -105 -265
-218 -372 -101 -95 -206 -153 -392 -215 -62 -21 -1091 -38 -1470 -24 -306 11
-351 20 -512 102 -199 103 -333 270 -404 506 l-27 88 -10 750 c-11 882 -9 908
56 1054 59 131 94 183 183 272 107 109 270 192 426 218 58 10 1741 14 1799 5z
m465 -187 c57 -29 99 -74 134 -143 19 -39 22 -57 18 -120 -6 -90 -5 -89 -227
-324 -351 -373 -1382 -1412 -1454 -1466 -67 -50 -123 -63 -201 -45 -56 13 -67
22 -281 229 -476 462 -460 442 -460 567 0 67 4 89 28 136 35 73 111 144 168
159 25 7 78 10 121 8 72 -4 80 -7 135 -48 32 -24 87 -71 123 -105 36 -33 108
-98 159 -144 l93 -85 82 85 c45 46 239 246 431 445 193 198 446 460 564 583
275 286 302 304 441 298 56 -3 88 -10 126 -30z m-3743 -712 c-3 -9 -8 -14 -10
-11 -3 3 -2 9 2 15 9 16 15 13 8 -4z m-16 -222 c-3 -10 -5 -4 -5 12 0 17 2 24
5 18 2 -7 2 -21 0 -30z m4730 -655 c-3 -7 -5 -2 -5 12 0 14 2 19 5 13 2 -7 2
-19 0 -25z"/>
<path d="M5120 4740 c0 -5 7 -10 15 -10 8 0 15 5 15 10 0 6 -7 10 -15 10 -8 0
-15 -4 -15 -10z"/>
<path d="M5160 4721 c-14 -4 -20 -10 -14 -14 6 -3 20 0 30 8 21 16 20 16 -16
6z"/>
<path d="M7751 5284 c0 -11 3 -14 6 -6 3 7 2 16 -1 19 -3 4 -6 -2 -5 -13z"/>
</g>
</svg>
